<svg width="118" height="110" viewBox="0 0 118 110" fill="none" xmlns="http://www.w3.org/2000/svg">
<path fill-rule="evenodd" clip-rule="evenodd" d="M71.4843 7.6543C84.6011 7.64651 96.7096 13.896 105.161 23.9276C113.929 34.3359 119.825 47.8619 116.468 61.0508C113.187 73.9398 101.062 81.5501 89.0429 87.2444C77.1496 92.8791 63.8653 96.9105 51.7812 91.6973C39.1604 86.2526 30.4625 74.2419 27.6948 60.7783C24.9981 47.6601 29.3397 34.3018 37.858 23.9676C46.1949 13.8535 58.3771 7.6621 71.4843 7.6543Z" fill="#FCE7E4"/>
<path d="M42.1036 96.4273C42.2411 96.4732 42.3328 96.519 42.4703 96.5648C43.8911 96.9773 45.312 97.344 46.8245 97.6648C48.2911 97.9398 49.8495 98.2148 51.362 98.3523C52.9203 98.5357 54.4786 98.5815 56.0828 98.5815C57.6411 98.5815 59.2453 98.5357 60.7578 98.3523C62.3161 98.2148 63.7828 97.9398 65.3411 97.6648C66.762 97.344 68.2745 96.9773 69.6953 96.5648C69.8328 96.519 69.9245 96.4732 70.062 96.4273H42.1036ZM106.591 41.7023C105.766 39.5482 104.299 37.7148 102.283 36.5232H102.237C101.412 35.9732 100.358 35.6065 99.3495 35.3773C99.0745 35.3315 98.7536 35.3315 98.4786 35.2857C98.4328 35.2398 98.4328 35.194 98.387 35.1023C98.387 35.0565 98.387 34.9648 98.3411 34.9648C97.7453 33.544 97.1036 32.2148 96.3703 30.8857C95.6828 29.6023 94.9036 28.319 94.0786 27.1273C93.2536 25.8898 92.337 24.744 91.4203 23.5982C90.5036 22.4982 89.4953 21.3982 88.487 20.344C87.4328 19.3357 86.3328 18.3273 85.2328 17.4107C85.0953 17.319 84.9578 17.2273 84.7745 17.0898C84.8199 17.2732 84.8661 17.4565 84.8661 17.6398V25.8898C85.4161 26.4857 85.9661 27.0815 86.5161 27.6773C87.3411 28.6398 88.0286 29.6482 88.762 30.7023C89.4953 31.7565 90.137 32.8565 90.7328 33.9565C91.237 34.8273 91.6495 35.6982 92.062 36.6148C92.062 36.6607 92.1078 36.7065 92.1078 36.7523C91.0995 37.4398 90.1828 38.2648 89.4495 39.2732C89.4036 39.2273 89.3578 39.2273 89.312 39.2273C87.4328 38.494 85.3245 37.7607 82.987 37.0273C81.4745 38.7232 79.1828 39.8232 76.5703 39.8232H65.0661L64.8828 39.869C66.1661 40.0523 67.3578 40.1894 68.5495 40.419C69.2828 44.9107 69.6495 49.8148 69.5578 55.0857C69.5578 55.269 69.512 55.4982 69.512 55.7273C65.7995 56.5523 62.8661 59.394 61.9953 63.0607H61.7203C55.8078 63.6107 49.437 63.519 42.6995 62.4648C42.1495 57.3315 42.1495 52.3815 42.4703 47.7523C42.4703 47.6148 42.5161 47.5232 42.5161 47.3857C43.8453 47.1565 45.037 46.6065 46.137 45.8732L42.0578 40.969C41.6453 41.1523 41.187 41.2898 40.7286 41.2898C40.1786 41.2898 39.6286 41.1523 39.1703 40.9232C38.6661 40.6482 38.2995 40.2815 37.9786 39.8232H34.9536C32.3411 39.8232 30.0036 38.6773 28.4911 36.9357C25.1911 38.0357 21.8453 39.2732 18.4536 40.8315C18.8661 39.6857 19.2786 38.5398 19.737 37.394C20.1953 36.2023 20.7453 35.0565 21.387 33.9565C21.9828 32.8565 22.6245 31.7565 23.3578 30.7023C24.0911 29.6482 24.8245 28.6857 25.6495 27.6773C26.7953 26.3482 26.5661 24.2857 25.1911 23.1857C23.8161 22.0857 21.8453 22.2232 20.7453 23.5982C19.7828 24.744 18.912 25.8898 18.087 27.1273C17.2161 28.319 16.4828 29.6023 15.7953 30.9315C15.062 32.2148 14.4203 33.544 13.8245 34.9648C13.2745 36.294 12.7703 37.7148 12.2661 39.1357C11.8536 40.5565 11.487 42.0232 11.1661 43.5357C10.8911 45.0023 10.6157 46.5607 10.4786 48.0732C10.4786 48.3023 10.4328 48.5315 10.4328 48.7607C9.92865 48.944 9.47031 49.219 9.01198 49.5398C6.39948 51.0982 4.61198 53.9398 4.42865 57.1482C4.38281 57.4232 4.38281 57.5607 4.38281 57.744C4.38281 59.8523 5.02448 61.8232 6.12448 63.3815C6.76615 64.2982 7.59115 65.0773 8.50781 65.7186C9.42448 66.4061 10.4328 66.8644 11.5786 67.1852C11.8995 67.2769 12.2203 67.3686 12.6328 67.4144C12.9995 68.5148 13.412 69.5686 13.8703 70.6227C14.0995 71.2186 14.3745 71.8144 14.6495 72.3644C14.9703 73.1436 15.3828 73.8769 15.7953 74.6102C16.4828 75.8936 17.2161 77.1769 18.087 78.3686C18.2703 78.6436 18.4995 78.9644 18.6828 79.2394H26.8411C26.4286 78.7811 26.0161 78.3227 25.6495 77.8186C24.8245 76.9019 24.0911 75.8936 23.3578 74.7936C22.8078 74.0144 22.3036 73.1894 21.8453 72.3644C21.662 72.1352 21.5245 71.8602 21.387 71.5852C20.7453 70.4394 20.1953 69.2936 19.737 68.1019C19.5536 67.6436 19.3703 67.1394 19.1411 66.6811C19.0953 66.5436 19.0495 66.4061 19.0036 66.2686C19.0495 66.2232 19.0953 66.2232 19.1411 66.1769C19.3703 66.1311 19.5536 65.9936 19.6911 65.8561C20.6536 65.2144 21.5245 64.3894 22.212 63.4269C22.3495 63.5186 22.5328 63.6102 22.7161 63.7019C27.5286 65.5811 32.2495 67.0019 36.8786 68.0102C37.1078 69.4311 37.3828 70.8977 37.7495 72.3644C38.2078 74.6102 38.8036 76.9019 39.537 79.2394H46.3203C45.5411 76.9019 44.8995 74.6561 44.3953 72.3644C44.1203 71.3102 43.8911 70.2561 43.7078 69.2019C47.6036 69.7061 51.362 69.9352 55.0286 69.9352C57.687 69.9352 60.2995 69.7977 62.7745 69.6144C63.0036 70.0727 63.1411 70.5311 63.462 70.9436C63.8286 71.4477 64.287 71.9519 64.7453 72.3644C65.0657 72.7311 65.4328 73.0061 65.7995 73.2811C66.1661 73.5561 66.6245 73.7852 67.037 74.0144C66.6245 75.7561 66.1203 77.4977 65.5245 79.2394H72.3078C72.7661 77.7269 73.1786 76.2602 73.5453 74.7477C75.3328 74.3811 76.9828 73.5561 78.2661 72.3644C79.412 71.3561 80.2828 70.0269 80.787 68.5144C81.062 67.7352 81.1536 66.9561 81.2453 66.1769C86.8828 64.5727 91.4203 62.6936 94.5828 61.2269C94.3078 62.3727 94.0786 63.4269 93.712 64.4811C93.3453 65.7186 92.887 66.9102 92.3828 68.1019C91.9245 69.2936 91.3745 70.4394 90.7328 71.5852C90.5953 71.8602 90.4578 72.1352 90.2745 72.3644C89.8161 73.1894 89.312 74.0144 88.762 74.7936C88.0286 75.8936 87.3411 76.9019 86.5161 77.8186C86.1036 78.3227 85.737 78.7811 85.3245 79.2394H93.4828C93.6661 78.9644 93.8953 78.6436 94.0786 78.3686C94.9036 77.1769 95.6828 75.8936 96.3703 74.6102C96.7828 73.8769 97.1495 73.1894 97.4703 72.4102C97.4703 72.4102 97.4703 72.4102 97.5161 72.4102C97.7911 71.8144 98.0661 71.2186 98.2953 70.6227C98.8911 69.2019 99.3958 67.8269 99.8536 66.3602C100.266 64.9394 100.679 63.4727 100.954 62.0061C101.274 60.4936 101.504 58.9811 101.641 57.4686C101.779 56.2769 101.87 55.0394 101.916 53.8019V53.5269C104.07 52.4269 105.812 50.5477 106.637 48.1644C106.958 47.1561 107.141 46.1019 107.141 45.0019C107.141 43.857 106.912 42.6653 106.591 41.7023ZM14.1911 61.1815L14.1453 61.1357C12.5411 60.8148 11.3036 59.4857 11.3036 57.7898C11.3036 56.0023 12.6786 54.5815 14.3745 54.3982C14.8786 54.3982 15.337 54.4898 15.7495 54.719C15.887 54.8107 16.0245 54.9023 16.162 55.0398C16.4828 55.2232 16.7578 55.4982 16.987 55.819C17.3536 56.369 17.6286 57.0565 17.6286 57.744C17.6286 57.7898 17.6286 57.8815 17.5828 57.9273C17.5828 58.7065 17.262 59.3936 16.8036 59.944C16.5286 60.2644 16.2078 60.5857 15.7953 60.769C15.2911 61.0445 14.7411 61.1815 14.1911 61.1815ZM24.687 57.5611C24.4578 57.4695 24.1828 57.332 23.9536 57.2403C23.9078 56.2778 23.7245 55.3153 23.4495 54.4903C22.6245 52.2903 21.1578 50.5023 19.1411 49.3111H19.0953C18.5911 48.9903 17.9953 48.7153 17.3995 48.532C17.4911 48.4403 17.6286 48.3945 17.7203 48.3486C22.487 45.9195 27.162 44.0403 31.7911 42.6195C31.9286 42.5736 32.0661 42.5736 32.2036 42.5278C32.387 42.8486 32.4786 43.2153 32.7078 43.4903C33.3036 44.407 34.1286 45.232 35.0453 45.8736C35.3203 46.057 35.6411 46.2403 35.962 46.3778C35.9161 46.5153 35.9161 46.6528 35.9161 46.7445C35.5495 51.282 35.5036 56.1403 36.0078 61.2278C32.2953 60.3107 28.4911 59.119 24.687 57.5611ZM68.7328 63.3361C68.7782 63.2445 68.8245 63.2445 68.8703 63.1986C69.512 62.4195 70.4286 61.9153 71.4828 61.9153H71.5286C72.262 61.9153 72.9036 62.1445 73.4536 62.6028C73.7745 62.7861 74.0495 63.0611 74.2787 63.382C74.5995 63.8403 74.8286 64.4361 74.8745 65.032C74.737 66.8195 73.2703 68.2861 71.437 68.2861C69.9703 68.2861 68.8245 67.4153 68.2745 66.2236C68.1828 66.0403 68.137 65.8111 68.137 65.582C68.0911 65.4903 68.0911 65.3986 68.0911 65.307C68.0911 64.5732 68.3661 63.8398 68.7328 63.3361ZM94.0786 54.3523C91.5578 55.6357 86.6078 57.8357 79.9161 59.7607C79.7786 59.8065 79.687 59.8065 79.5953 59.8523C78.7703 58.6607 77.7161 57.6523 76.4328 56.8732H76.387C76.2953 56.8273 76.2037 56.7815 76.112 56.7357C76.112 56.5065 76.1578 56.3232 76.1578 56.094C76.2953 51.0065 75.9745 46.2398 75.3787 41.7023C80.0995 42.8482 84.2249 44.2232 87.4328 45.4607H87.4786C87.5245 45.5065 87.5703 45.5065 87.6161 45.5065C87.7078 47.3857 88.2578 49.1732 89.2661 50.594C89.9078 51.5107 90.7328 52.3357 91.6495 52.9773C92.4286 53.5732 93.3453 53.9398 94.2615 54.2607C94.2161 54.3065 94.1703 54.3065 94.0786 54.3523ZM98.937 48.0273C98.4328 48.2565 97.8828 48.394 97.3328 48.394C96.7828 48.394 96.2328 48.2565 95.7745 48.0273C94.7203 47.4773 94.0328 46.4232 93.987 45.2315C93.9416 45.1398 93.9416 45.0482 93.9416 45.0023C93.9416 44.269 94.1708 43.5357 94.5833 43.0315C94.6291 42.9398 94.6749 42.894 94.7208 42.8482C95.3166 42.069 96.2791 41.5648 97.3333 41.5648H97.3791C98.1124 41.5648 98.7541 41.8398 99.3041 42.2523C99.5791 42.4815 99.8999 42.7107 100.129 43.0773C100.496 43.5815 100.771 44.3148 100.771 45.0023C100.77 46.2857 100.037 47.4315 98.937 48.0273Z" fill="url(#paint0_linear_1218_9101)"/>
<path d="M51.8995 55.2821C51.8463 55.2821 51.789 55.2821 51.7317 55.2784C50.5002 55.2317 49.3828 54.6533 48.671 53.6935L39.8316 41.8121H33.0918C28.3737 41.8121 24.5352 38.1688 24.5352 33.6868V15.766C24.5352 11.2839 28.3737 7.64062 33.0918 7.64062H78.4489C83.1711 7.64062 87.0097 11.2839 87.0097 15.766V33.6868C87.0097 38.1688 83.1711 41.8121 78.4489 41.8121L65.5262 41.9831L54.9112 53.9538C54.1623 54.8004 53.0696 55.2821 51.8995 55.2821ZM50.1028 50.1084L50.0946 50.1162L50.1028 50.1084ZM33.0918 13.6058C31.8396 13.6058 30.8207 14.5729 30.8207 15.7655V33.6863C30.8207 34.8789 31.8396 35.846 33.0918 35.846H43.0889L52.059 47.902L60.7137 38.1413C62.0067 36.6811 63.8973 35.846 65.9025 35.846H78.4489C79.7052 35.846 80.7241 34.8789 80.7241 33.6863V15.7655C80.7241 14.5729 79.7052 13.6058 78.4489 13.6058H33.0918Z" fill="url(#paint1_linear_1218_9101)"/>
<path d="M33.8867 20.3243C33.8867 20.0603 33.9587 19.8087 34.1026 19.5631C34.2525 19.3174 34.4445 19.0956 34.6902 18.9095C34.9299 18.7234 35.2058 18.5676 35.5056 18.4539C35.8113 18.3402 36.1051 18.2861 36.3988 18.2861H38.7373C40.2539 18.2861 41.5789 18.496 42.7124 18.9218C43.8394 19.3476 44.7808 19.9109 45.5302 20.6186C46.2796 21.3198 46.8433 22.1173 47.227 22.9987C47.6046 23.8801 47.7967 24.7913 47.7967 25.7267C47.7967 26.6438 47.617 27.5312 47.2572 28.4006C46.8974 29.2701 46.352 30.0373 45.6205 30.7088C44.889 31.3803 43.9829 31.9257 42.8976 32.345C41.8182 32.7589 40.5591 32.9684 39.1145 32.9684H36.3988C35.6376 32.9684 35.0321 32.7823 34.5701 32.417C34.1145 32.0453 33.8867 31.554 33.8867 30.9302V20.3243ZM39.1447 28.892C39.7864 28.892 40.3497 28.7962 40.8236 28.5982C41.303 28.4002 41.7045 28.1486 42.0405 27.8364C42.37 27.5248 42.6161 27.1709 42.7839 26.7694C42.9516 26.3679 43.0296 25.9541 43.0296 25.5283C43.0296 25.1327 42.9516 24.7486 42.7958 24.371C42.64 23.9993 42.4062 23.6633 42.0822 23.3819C41.7586 23.0941 41.3507 22.8603 40.8529 22.6806C40.3556 22.501 39.78 22.4107 39.1145 22.4107H38.707V28.8915L39.1447 28.892Z" fill="url(#paint2_linear_1218_9101)"/>
<path d="M54.2543 30.9298C54.2543 31.5834 54.0146 32.0871 53.5407 32.4285C53.0613 32.7704 52.4916 32.9442 51.8261 32.9442C51.1844 32.9442 50.6271 32.7704 50.1472 32.4285C49.6673 32.0866 49.4336 31.5834 49.4336 30.9298V20.3239C49.4336 19.6644 49.6673 19.1667 50.1472 18.8252C50.6266 18.4773 51.1844 18.3096 51.8261 18.3096H51.9462C52.8037 18.3096 53.4151 18.6093 53.7868 19.2148L58.1694 24.7904V20.3239C58.1694 19.6644 58.4091 19.1667 58.889 18.8252C59.3625 18.4773 59.9262 18.3096 60.5679 18.3096C61.2274 18.3096 61.7971 18.4773 62.2766 18.8252C62.756 19.1671 62.9902 19.6644 62.9902 20.3239V30.9298C62.9902 31.5834 62.7564 32.0871 62.2766 32.4285C61.7967 32.77 61.227 32.9442 60.5679 32.9442C60.2383 32.9442 59.9505 32.9084 59.7168 32.8484C59.483 32.7824 59.285 32.6985 59.1232 32.6027C58.9555 32.5009 58.8235 32.4047 58.7277 32.3029C58.6259 32.2072 58.548 32.1233 58.4939 32.0573L54.2553 26.7576L54.2543 30.9298Z" fill="url(#paint3_linear_1218_9101)"/>
<path d="M77.6592 28.2801C77.6592 31.4036 75.8488 32.9684 72.2275 32.9684H67.4311C65.8961 32.9684 65.1229 32.3148 65.1229 31.0017V30.9302C65.1651 29.5694 65.9443 28.892 67.4613 28.892H72.4915C72.8211 28.892 73.0612 28.814 73.2171 28.6582C73.3729 28.5024 73.4508 28.3346 73.4508 28.1545C73.4508 27.9748 73.3729 27.8066 73.2171 27.6508C73.0612 27.495 72.8215 27.417 72.4915 27.417H70.0032C66.574 27.417 64.8594 25.9362 64.8594 22.9744C64.8594 19.8449 66.6941 18.2861 70.3571 18.2861H74.2121C75.753 18.2861 76.5203 18.9397 76.5203 20.2464V20.3243C76.4845 21.6792 75.7049 22.3625 74.1819 22.3625H70.033C69.7035 22.3625 69.4574 22.4405 69.3015 22.5903C69.1457 22.7462 69.0678 22.9139 69.0678 23.094C69.0678 23.2742 69.1457 23.4419 69.3015 23.5978C69.4574 23.7536 69.703 23.8315 70.033 23.8315H72.5149C75.9446 23.832 77.6592 25.3124 77.6592 28.2801Z" fill="url(#paint4_linear_1218_9101)"/>
<path d="M95.4525 74.9812C95.4094 74.9812 95.4094 74.9812 95.4094 74.9812C95.1073 74.9404 94.8484 74.9404 94.5463 74.9404H16.995C12.1614 74.9404 8.23438 78.5966 8.23438 83.146V94.1542C8.23438 98.7041 12.1618 102.36 16.995 102.36H94.5459C99.3795 102.36 103.306 98.7041 103.306 94.1542V83.146C103.307 78.8807 99.8543 75.3873 95.4525 74.9812ZM96.8334 94.1542C96.8334 95.3326 95.7976 96.2667 94.5459 96.2667H16.995C15.7437 96.2667 14.7074 95.3326 14.7074 94.1542V83.146C14.7074 81.9676 15.7433 81.0335 16.995 81.0335H94.5459C95.7976 81.0335 96.8334 81.9676 96.8334 83.146V94.1542Z" fill="url(#paint5_linear_1218_9101)"/>
<path fill-rule="evenodd" clip-rule="evenodd" d="M16.957 88.6494C16.957 86.7509 18.4961 85.2119 20.3945 85.2119H61.2779C63.1763 85.2119 64.7154 86.7509 64.7154 88.6494C64.7154 90.5479 63.1763 92.0869 61.2779 92.0869H20.3945C18.4961 92.0869 16.957 90.5479 16.957 88.6494Z" fill="url(#paint6_linear_1218_9101)"/>
<path d="M75.1981 92.3279C77.2297 92.3279 78.8767 90.6809 78.8767 88.6493C78.8767 86.6177 77.2297 84.9707 75.1981 84.9707C73.1665 84.9707 71.5195 86.6177 71.5195 88.6493C71.5195 90.6809 73.1665 92.3279 75.1981 92.3279Z" fill="url(#paint7_linear_1218_9101)"/>
<path d="M87.4716 92.3279C89.5032 92.3279 91.1501 90.6809 91.1501 88.6493C91.1501 86.6177 89.5032 84.9707 87.4716 84.9707C85.4399 84.9707 83.793 86.6177 83.793 88.6493C83.793 90.6809 85.4399 92.3279 87.4716 92.3279Z" fill="url(#paint8_linear_1218_9101)"/>
<defs>
<linearGradient id="paint0_linear_1218_9101" x1="55.762" y1="17.0898" x2="55.762" y2="98.5815" gradientUnits="userSpaceOnUse">
<stop stop-color="#FE5F26"/>
<stop offset="1" stop-color="#D30B01"/>
</linearGradient>
<linearGradient id="paint1_linear_1218_9101" x1="55.7724" y1="7.64062" x2="55.7724" y2="55.2821" gradientUnits="userSpaceOnUse">
<stop stop-color="#FE5F26"/>
<stop offset="1" stop-color="#D30B01"/>
</linearGradient>
<linearGradient id="paint2_linear_1218_9101" x1="40.8417" y1="18.2861" x2="40.8417" y2="32.9684" gradientUnits="userSpaceOnUse">
<stop stop-color="#FE5F26"/>
<stop offset="1" stop-color="#D30B01"/>
</linearGradient>
<linearGradient id="paint3_linear_1218_9101" x1="56.2119" y1="18.3096" x2="56.2119" y2="32.9442" gradientUnits="userSpaceOnUse">
<stop stop-color="#FE5F26"/>
<stop offset="1" stop-color="#D30B01"/>
</linearGradient>
<linearGradient id="paint4_linear_1218_9101" x1="71.2593" y1="18.2861" x2="71.2593" y2="32.9684" gradientUnits="userSpaceOnUse">
<stop stop-color="#FE5F26"/>
<stop offset="1" stop-color="#D30B01"/>
</linearGradient>
<linearGradient id="paint5_linear_1218_9101" x1="55.7704" y1="74.9404" x2="55.7704" y2="102.36" gradientUnits="userSpaceOnUse">
<stop stop-color="#FE5F26"/>
<stop offset="1" stop-color="#D30B01"/>
</linearGradient>
<linearGradient id="paint6_linear_1218_9101" x1="40.8362" y1="85.2119" x2="40.8362" y2="92.0869" gradientUnits="userSpaceOnUse">
<stop stop-color="#FE5F26"/>
<stop offset="1" stop-color="#D30B01"/>
</linearGradient>
<linearGradient id="paint7_linear_1218_9101" x1="75.1981" y1="84.9707" x2="75.1981" y2="92.3279" gradientUnits="userSpaceOnUse">
<stop stop-color="#FE5F26"/>
<stop offset="1" stop-color="#D30B01"/>
</linearGradient>
<linearGradient id="paint8_linear_1218_9101" x1="87.4716" y1="84.9707" x2="87.4716" y2="92.3279" gradientUnits="userSpaceOnUse">
<stop stop-color="#D61104"/>
<stop offset="1" stop-color="#FE5F26"/>
</linearGradient>
</defs>
</svg>
