<svg width="111" height="110" viewBox="0 0 111 110" fill="none" xmlns="http://www.w3.org/2000/svg">
<path d="M42.6196 41.5541L36.6705 46.197C32.0963 50.1799 39.3838 56.0512 42.3034 50.7299C43.6188 47.4437 46.7767 43.172 45.3513 41.8887C44.6913 41.0408 43.4676 40.8895 42.6242 41.5541H42.6196Z" fill="url(#paint0_linear_1511_45521)"/>
<path d="M32.6616 59.2142C34.0045 57.8713 34.0045 55.6942 32.6616 54.3513C30.5762 52.2705 29.4304 49.4975 29.4304 46.5596C29.4304 43.6217 30.5762 40.8488 32.657 38.768C36.8279 34.6063 44.0787 34.6063 48.2358 38.768C50.3212 40.8488 51.467 43.6217 51.467 46.5596C51.467 49.4975 50.3212 52.2705 48.2358 54.3513C46.8974 55.6942 46.8974 57.8713 48.2358 59.2142C48.9049 59.8834 49.7849 60.2225 50.6649 60.2225C51.5449 60.2225 52.4249 59.888 53.0987 59.2142C56.4766 55.8317 58.3374 51.3355 58.3374 46.5596C58.3374 41.7838 56.4766 37.2921 53.0941 33.905C46.3245 27.1446 34.5591 27.14 27.7895 33.905C24.4116 37.2875 22.5508 41.7838 22.5508 46.5596C22.5508 51.3355 24.4116 55.8271 27.7895 59.2142C29.1324 60.5571 31.3095 60.5571 32.6524 59.2142H32.6616Z" fill="url(#paint1_linear_1511_45521)"/>
<path d="M68.0599 35.7839H78.3266C79.9078 35.7839 81.1912 34.5005 81.1912 32.9193C81.1912 31.338 79.9078 30.0547 78.3266 30.0547H68.0599C66.4786 30.0547 65.1953 31.338 65.1953 32.9193C65.1953 34.5005 66.4786 35.7839 68.0599 35.7839Z" fill="url(#paint2_linear_1511_45521)"/>
<path d="M68.0599 58.8337H79.9766C81.5578 58.8337 82.8412 57.5503 82.8412 55.9691C82.8412 54.3878 81.5578 53.1045 79.9766 53.1045H68.0599C66.4786 53.1045 65.1953 54.3878 65.1953 55.9691C65.1953 57.5503 66.4786 58.8337 68.0599 58.8337Z" fill="url(#paint3_linear_1511_45521)"/>
<path d="M68.0599 47.3063H86.7966C88.3778 47.3063 89.6611 46.023 89.6611 44.4417C89.6611 42.8605 88.3778 41.5771 86.7966 41.5771H68.0599C66.4786 41.5771 65.1953 42.8605 65.1953 44.4417C65.1953 46.023 66.4786 47.3063 68.0599 47.3063Z" fill="url(#paint4_linear_1511_45521)"/>
<path d="M92.6588 15.9062H18.8718C13.9401 15.9062 9.92969 19.9167 9.92969 24.8437V74.77C9.92969 79.7017 13.9401 83.7121 18.8718 83.7121H43.1863L41.3714 87.2183H36.5634C34.6659 87.2183 33.1259 88.7583 33.1259 90.6558C33.1259 92.5533 34.6659 94.0933 36.5634 94.0933H74.7655C76.663 94.0933 78.203 92.5533 78.203 90.6558C78.203 88.7583 76.663 87.2183 74.7655 87.2183H70.1455L68.3351 83.7121H92.6543C97.5813 83.7121 101.592 79.7017 101.592 74.77V24.8437C101.592 19.9167 97.5859 15.9062 92.6588 15.9062ZM18.8718 22.7813H92.6588C93.7955 22.7813 94.7213 23.7071 94.7213 24.8437V65.8096H16.8047V24.8437C16.8047 23.7071 17.7305 22.7813 18.8718 22.7813ZM62.4134 87.2183H49.1172L50.9322 83.7121H60.6076L62.4134 87.2183ZM92.6588 76.8371H18.8718C17.7305 76.8371 16.8047 75.9112 16.8047 74.77V72.6846H94.7213V74.77C94.7213 75.9112 93.7955 76.8371 92.6588 76.8371Z" fill="url(#paint5_linear_1511_45521)"/>
<defs>
<linearGradient id="paint0_linear_1511_45521" x1="40.4561" y1="41.1396" x2="40.4561" y2="52.8551" gradientUnits="userSpaceOnUse">
<stop stop-color="#FE5F26"/>
<stop offset="1" stop-color="#D30B01"/>
</linearGradient>
<linearGradient id="paint1_linear_1511_45521" x1="40.4441" y1="28.833" x2="40.4441" y2="60.2225" gradientUnits="userSpaceOnUse">
<stop stop-color="#FE5F26"/>
<stop offset="1" stop-color="#D30B01"/>
</linearGradient>
<linearGradient id="paint2_linear_1511_45521" x1="73.1932" y1="30.0547" x2="73.1932" y2="35.7839" gradientUnits="userSpaceOnUse">
<stop stop-color="#FE5F26"/>
<stop offset="1" stop-color="#D30B01"/>
</linearGradient>
<linearGradient id="paint3_linear_1511_45521" x1="74.0182" y1="53.1045" x2="74.0182" y2="58.8337" gradientUnits="userSpaceOnUse">
<stop stop-color="#FE5F26"/>
<stop offset="1" stop-color="#D30B01"/>
</linearGradient>
<linearGradient id="paint4_linear_1511_45521" x1="77.4282" y1="41.5771" x2="77.4282" y2="47.3063" gradientUnits="userSpaceOnUse">
<stop stop-color="#FE5F26"/>
<stop offset="1" stop-color="#D30B01"/>
</linearGradient>
<linearGradient id="paint5_linear_1511_45521" x1="55.7607" y1="15.9062" x2="55.7607" y2="94.0933" gradientUnits="userSpaceOnUse">
<stop stop-color="#FE5F26"/>
<stop offset="1" stop-color="#D30B01"/>
</linearGradient>
</defs>
</svg>
