<svg width="118" height="111" viewBox="0 0 118 111" fill="none" xmlns="http://www.w3.org/2000/svg">
<path fill-rule="evenodd" clip-rule="evenodd" d="M71.5155 8.32618C84.6324 8.31838 96.7409 14.5679 105.192 24.5994C113.96 35.0078 119.857 48.5337 116.499 61.7227C113.218 74.6116 101.093 82.222 89.0741 87.9163C77.1808 93.551 63.8965 97.5824 51.8125 92.3692C39.1917 86.9245 30.4937 74.9138 27.726 61.4501C25.0293 48.332 29.3709 34.9736 37.8893 24.6394C46.2262 14.5254 58.4084 8.33397 71.5155 8.32618Z" fill="#FCE7E4"/>
<path d="M101.945 45.222C101.258 42.1512 100.295 39.172 98.9661 36.3762C99.1036 36.6053 99.1953 36.8803 99.2411 37.1553C99.4245 38.4387 98.5536 39.6303 97.2703 39.8595C95.987 40.0428 94.7953 39.172 94.612 37.8887C94.5203 37.247 94.6578 36.6512 95.0245 36.147C95.3911 35.6428 95.9411 35.322 96.537 35.2303C96.6745 35.1845 96.812 35.1845 96.9036 35.1845C97.7745 35.1845 98.5536 35.6428 98.9661 36.3762C97.7745 33.672 96.3078 31.0595 94.612 28.6303C86.0411 16.3928 71.8328 8.32617 55.7911 8.32617C46.3953 8.32617 37.3203 11.0762 29.5286 16.3012C27.9245 17.3553 27.512 19.5095 28.5661 21.0678C29.6203 22.672 31.7745 23.0845 33.3328 22.0303C35.212 20.747 37.2286 19.647 39.2911 18.7762C37.5495 21.5262 35.6703 24.9637 34.112 29.0428C33.3786 30.8303 32.6911 32.7553 32.0953 34.8178H21.1411C22.6536 32.297 24.487 29.9137 26.5495 27.7595C27.8328 26.3845 27.787 24.1845 26.412 22.8553C25.037 21.572 22.8828 21.6178 21.5536 22.9928C13.1203 31.8387 8.44531 43.4345 8.44531 55.672C8.44531 59.2928 8.85781 62.822 9.63698 66.2137V66.2595C11.012 72.2178 13.487 77.672 16.8786 82.5303C25.4036 94.9053 39.6578 103.018 55.7911 103.018C74.9495 103.018 91.4953 91.5595 98.9661 75.1053C98.9661 75.0595 99.012 75.0137 99.012 75.0137C99.1495 74.6928 99.287 74.372 99.4245 74.0512C99.5162 73.9595 99.5162 73.8678 99.5162 73.7762C101.854 68.1845 103.137 62.0887 103.137 55.672C103.137 52.097 102.724 48.5678 101.945 45.222ZM89.112 32.7095C89.6161 33.397 90.0286 34.0845 90.487 34.8178H79.9453C78.0661 28.3095 75.362 22.947 72.887 19.0053C79.3953 22.0303 85.0328 26.797 89.112 32.7095ZM50.1078 15.6137C51.987 15.3387 53.8661 15.2012 55.7911 15.2012C57.8995 15.2012 59.962 15.3387 61.9328 15.6595H61.9786C62.987 16.6678 69.2661 23.3595 73.0245 34.8178H39.0161C39.5203 33.2595 40.0703 31.8387 40.6661 30.4637C44.4703 21.4345 49.512 16.2553 50.1078 15.6137ZM33.6995 36.7887C34.0661 36.2845 34.6161 35.9637 35.212 35.8262H35.5786C36.7245 35.8262 37.7328 36.6512 37.9161 37.797C38.0995 39.0803 37.2286 40.272 35.9453 40.4553C34.662 40.6845 33.4703 39.8137 33.287 38.5303C33.1953 37.8887 33.3328 37.2928 33.6995 36.7887ZM15.687 75.7928C14.4036 75.9762 13.212 75.1053 12.9828 73.8215C12.8911 73.2257 13.0745 72.584 13.4411 72.0799C13.8078 71.5757 14.3578 71.2549 14.9536 71.1632C15.0911 71.1174 15.1828 71.1174 15.3203 71.1174C16.4661 71.1174 17.4745 71.9424 17.6578 73.0882C17.8411 74.372 16.9703 75.5637 15.687 75.7928ZM22.6995 78.9553C22.1036 78.1762 21.599 77.3512 21.0953 76.5262H33.4245C35.1661 81.8428 37.5495 87.4345 40.8036 93.2553C33.4703 90.322 27.1911 85.3262 22.6995 78.9553ZM61.7953 95.6845C59.8703 96.0053 57.8536 96.1428 55.7911 96.1428C53.912 96.1428 52.0786 96.0053 50.2911 95.7762C45.9828 88.9928 42.8203 82.5762 40.6661 76.5262H71.3745C70.9161 77.8095 70.412 79.1387 69.8162 80.5137C67.7995 85.3262 65.187 90.4137 61.7953 95.6845ZM73.437 73.822C73.3453 73.2262 73.4828 72.5845 73.8495 72.0803C74.2161 71.5762 74.7662 71.2553 75.4078 71.1637C75.4995 71.1178 75.637 71.1178 75.7282 71.1178C76.874 71.1178 77.8824 71.9428 78.0657 73.0887C78.249 74.372 77.3782 75.5637 76.0949 75.7928C74.812 75.9762 73.6203 75.1053 73.437 73.822ZM71.3745 93.072C73.3453 89.497 74.9953 86.0137 76.3245 82.622C77.2411 80.5595 77.9745 78.5428 78.6161 76.5262H90.487C86.0411 83.8595 79.3495 89.6803 71.3745 93.072ZM93.7411 69.6512H17.8411C17.1995 67.9553 16.6499 66.1678 16.2828 64.3345C15.6411 61.5387 15.3203 58.6512 15.3203 55.672C15.3203 50.8137 16.1911 46.0928 17.8411 41.6928H93.7411C94.337 43.297 94.8411 44.9012 95.2078 46.597C95.8953 49.4845 96.262 52.5553 96.262 55.672C96.262 60.5762 95.3912 65.297 93.7411 69.6512Z" fill="url(#paint0_linear_1218_1448)"/>
<path d="M44.6997 36.7484C44.608 36.0609 44.4247 35.4193 44.1497 34.8234C43.508 32.9901 42.2247 31.5234 40.6663 30.4693C38.833 29.2318 36.4955 28.6818 34.158 29.0484H34.1122C31.683 29.4609 29.5747 30.7443 28.1538 32.7609C27.6955 33.4026 27.2835 34.0901 27.008 34.8234C26.4126 36.3359 26.2288 37.9401 26.5038 39.5901C26.5955 40.3234 26.8247 41.0568 27.1455 41.6984C28.5205 45.0901 31.8663 47.3818 35.5788 47.3818C36.083 47.3818 36.5413 47.3359 37.045 47.2901C40.2992 46.7401 42.9117 44.5401 44.1034 41.6984C44.5617 40.598 44.7909 39.4068 44.7909 38.1693C44.7913 37.7105 44.7913 37.2068 44.6997 36.7484ZM35.2122 35.8318H35.5788C36.7247 35.8318 37.733 36.6568 37.9159 37.8026C38.0992 39.0859 37.2284 40.2776 35.945 40.4609C34.6617 40.6901 33.47 39.8193 33.2867 38.5359C33.195 37.8943 33.3321 37.2984 33.6992 36.7943C34.0663 36.2896 34.6163 35.9693 35.2122 35.8318Z" fill="url(#paint1_linear_1218_1448)"/>
<path d="M106.026 36.1012C105.246 31.0595 100.48 27.622 95.484 28.4012C95.209 28.447 94.8881 28.4928 94.6131 28.6303C92.5506 29.1345 90.7173 30.3262 89.4798 32.1137C89.3423 32.297 89.2048 32.4803 89.1131 32.7095C88.6548 33.3512 88.334 34.0845 88.1048 34.8178C87.6923 36.147 87.6006 37.522 87.8298 38.9428C87.9673 39.9512 88.2881 40.8678 88.7465 41.6928C90.0298 44.2595 92.4131 46.047 95.209 46.5965C95.759 46.6882 96.3548 46.734 96.9048 46.734C97.3631 46.734 97.8673 46.6882 98.3261 46.6424C99.6553 46.459 100.893 45.9549 101.947 45.2215C104.514 43.5715 106.118 40.684 106.118 37.5215C106.117 37.0637 106.117 36.5595 106.026 36.1012ZM99.2423 37.1553C99.4256 38.4387 98.5548 39.6303 97.2715 39.8595C95.9881 40.0428 94.7965 39.172 94.6131 37.8887C94.5215 37.247 94.659 36.6512 95.0256 36.147C95.3923 35.6428 95.9423 35.322 96.5381 35.2303C96.6756 35.1845 96.8131 35.1845 96.9048 35.1845C97.7756 35.1845 98.5548 35.6428 98.9673 36.3762C99.1048 36.6053 99.1965 36.8803 99.2423 37.1553Z" fill="url(#paint2_linear_1218_1448)"/>
<path d="M84.8507 72.0343C84.7132 71.1635 84.484 70.3843 84.1174 69.651C82.4674 65.9385 78.4799 63.6927 74.309 64.3802C71.8799 64.7468 69.7715 66.0302 68.3049 68.0468C67.9382 68.551 67.6174 69.0552 67.3882 69.651C66.609 71.2552 66.334 73.0885 66.6549 74.876C66.7465 75.426 66.884 75.976 67.0674 76.526C67.6174 78.0843 68.5799 79.4593 69.8174 80.5135C71.4674 81.8885 73.5299 82.6677 75.7299 82.6677C75.9132 82.6677 76.1424 82.6677 76.3257 82.6218C76.6007 82.6218 76.8757 82.6218 77.1965 82.576C80.634 82.0718 83.3382 79.6427 84.4382 76.526C84.759 75.5635 84.9424 74.5093 84.9424 73.4552C84.9424 72.9968 84.9424 72.4927 84.8507 72.0343ZM76.0965 75.7927C74.8132 75.976 73.6215 75.1052 73.4382 73.8214C73.3465 73.2255 73.484 72.5839 73.8507 72.0797C74.2174 71.5755 74.7674 71.2547 75.409 71.163C75.5007 71.1172 75.6382 71.1172 75.7294 71.1172C76.8752 71.1172 77.8836 71.9422 78.0669 73.088C78.2507 74.3718 77.3799 75.5635 76.0965 75.7927Z" fill="url(#paint3_linear_1218_1448)"/>
<path d="M24.4412 72.0344C24.3036 71.1636 24.0745 70.3844 23.7078 69.6511C22.3786 66.6719 19.537 64.6094 16.2828 64.3344C15.5036 64.2427 14.7245 64.2427 13.8995 64.3802C12.3411 64.6094 10.8745 65.2511 9.63698 66.2136V66.2594C8.94948 66.7177 8.35365 67.3594 7.84948 68.0469C6.42865 70.0177 5.83282 72.4469 6.19948 74.8761C6.93282 79.4136 10.8745 82.6677 15.3203 82.6677C15.7786 82.6677 16.2828 82.6219 16.7411 82.5761C16.787 82.5761 16.8328 82.5761 16.8786 82.5302C19.3078 82.1636 21.3703 80.8344 22.6995 78.9552C23.2495 78.2219 23.7078 77.3969 24.0287 76.5261C24.3495 75.5636 24.5328 74.5094 24.5328 73.4552C24.5328 72.9969 24.5328 72.4927 24.4412 72.0344ZM15.687 75.7927C14.4036 75.9761 13.212 75.1052 12.9828 73.8214C12.8911 73.2256 13.0745 72.5839 13.4411 72.0798C13.8078 71.5756 14.3578 71.2548 14.9536 71.1631C15.0911 71.1173 15.1828 71.1173 15.3203 71.1173C16.4661 71.1173 17.4745 71.9423 17.6578 73.0881C17.8411 74.3719 16.9703 75.5636 15.687 75.7927Z" fill="url(#paint4_linear_1218_1448)"/>
<path d="M41.2759 63.84C39.9957 63.8277 38.711 63.5765 37.5226 63.1085C35.4184 62.2799 33.5218 60.7417 32.6376 58.6604C31.539 56.074 32.2031 52.9033 34.0617 50.7963C36.5724 47.9501 40.7061 47.1961 44.2353 48.2902C46.5274 49.001 48.6807 50.3536 46.1603 52.5765C45.9156 52.7924 45.6497 53.0041 45.3316 53.0761C44.7679 53.2039 44.217 52.8694 43.7014 52.6077C42.7737 52.1369 41.7305 51.8688 40.6919 51.9279C39.0025 52.0247 37.3461 53.0793 36.8616 54.7591C36.4093 56.3284 37.1829 58.1182 38.5511 59.0101C39.9192 59.902 41.758 59.9277 43.2366 59.2342C43.8888 58.9285 44.5461 58.4817 45.2592 58.582C46.081 58.6975 46.6136 59.4831 47.0399 60.1949C47.1893 60.4442 47.3428 60.7059 47.3639 60.9961C47.4074 61.5882 46.9019 62.0677 46.4069 62.3958C44.8981 63.3964 43.0918 63.8579 41.2759 63.84Z" fill="url(#paint5_linear_1218_1448)"/>
<path d="M48.9536 49.9926C48.9536 49.7103 49.0338 49.4403 49.191 49.1772C49.345 48.9142 49.5535 48.6763 49.8171 48.4774C50.077 48.2784 50.3694 48.1116 50.6902 47.9892C51.0142 47.8673 51.3323 47.8096 51.6467 47.8096H54.1506C55.7782 47.8096 57.194 48.0342 58.4044 48.4902C59.6149 48.9462 60.6228 49.5494 61.4253 50.307C62.2278 51.0582 62.8347 51.9121 63.2421 52.8558C63.6468 53.7995 63.8522 54.7758 63.8522 55.7772C63.8522 56.7594 63.6597 57.71 63.271 58.6409C62.8855 59.5718 62.3016 60.3936 61.5183 61.1127C60.7383 61.8318 59.7689 62.4162 58.6098 62.8654C57.4506 63.3086 56.0995 63.5332 54.5553 63.5332H51.6467C50.8314 63.5332 50.1796 63.3342 49.6915 62.9424C49.2002 62.5441 48.9531 62.0179 48.9531 61.3501L48.9536 49.9926ZM54.5879 59.168C55.2781 59.168 55.8753 59.0653 56.3887 58.8536C56.8993 58.6418 57.3324 58.3719 57.6858 58.0382C58.0419 57.7045 58.3086 57.3255 58.4851 56.8951C58.6615 56.4647 58.7514 56.022 58.7514 55.5659C58.7514 55.142 58.668 54.7313 58.5011 54.3266C58.3343 53.9283 58.0772 53.569 57.7339 53.2674C57.3906 52.9594 56.9506 52.7087 56.4175 52.5162C55.8877 52.3237 55.2648 52.2274 54.5558 52.2274H54.119V59.168H54.5879Z" fill="url(#paint6_linear_1218_1448)"/>
<path d="M70.0916 61.3698C70.0916 62.072 69.834 62.6128 69.3221 62.9804C68.8101 63.3475 68.1982 63.5345 67.4864 63.5345C66.7939 63.5345 66.1917 63.3475 65.6797 62.9804C65.1677 62.6133 64.9102 62.072 64.9102 61.3698V49.9747C64.9102 49.2662 65.1677 48.7317 65.6797 48.3642C66.1917 47.9906 66.7939 47.81 67.4864 47.81H67.612C68.5333 47.81 69.1901 48.1322 69.5897 48.7826L74.2987 54.7735V49.9743C74.2987 49.2657 74.5562 48.7313 75.0687 48.3637C75.5806 47.9902 76.1829 47.8096 76.8754 47.8096C77.584 47.8096 78.1991 47.9902 78.7115 48.3637C79.2234 48.7308 79.481 49.2657 79.481 49.9743V61.3694C79.481 62.0715 79.2234 62.6124 78.7115 62.9799C78.1995 63.3471 77.584 63.5341 76.8754 63.5341C76.5179 63.5341 76.2149 63.4956 75.9638 63.4309C75.7126 63.3599 75.4967 63.2701 75.3198 63.1669C75.1425 63.0574 75.0008 62.9543 74.8945 62.8447C74.7914 62.7416 74.7075 62.6513 74.6433 62.5807L70.0925 56.8864L70.0916 61.3698Z" fill="url(#paint7_linear_1218_1448)"/>
<defs>
<linearGradient id="paint0_linear_1218_1448" x1="55.7911" y1="8.32617" x2="55.7911" y2="103.018" gradientUnits="userSpaceOnUse">
<stop stop-color="#FE5F26"/>
<stop offset="1" stop-color="#D30B01"/>
</linearGradient>
<linearGradient id="paint1_linear_1218_1448" x1="35.5849" y1="28.9365" x2="35.5849" y2="47.3818" gradientUnits="userSpaceOnUse">
<stop stop-color="#FE5F26"/>
<stop offset="1" stop-color="#D30B01"/>
</linearGradient>
<linearGradient id="paint2_linear_1218_1448" x1="96.9124" y1="28.291" x2="96.9124" y2="46.734" gradientUnits="userSpaceOnUse">
<stop stop-color="#FE5F26"/>
<stop offset="1" stop-color="#D30B01"/>
</linearGradient>
<linearGradient id="paint3_linear_1218_1448" x1="75.7329" y1="64.2568" x2="75.7329" y2="82.6677" gradientUnits="userSpaceOnUse">
<stop stop-color="#FE5F26"/>
<stop offset="1" stop-color="#D30B01"/>
</linearGradient>
<linearGradient id="paint4_linear_1218_1448" x1="15.3133" y1="64.2705" x2="15.3133" y2="82.6677" gradientUnits="userSpaceOnUse">
<stop stop-color="#FE5F26"/>
<stop offset="1" stop-color="#D30B01"/>
</linearGradient>
<linearGradient id="paint5_linear_1218_1448" x1="39.736" y1="47.8105" x2="39.736" y2="63.8405" gradientUnits="userSpaceOnUse">
<stop stop-color="#FE5F26"/>
<stop offset="1" stop-color="#D30B01"/>
</linearGradient>
<linearGradient id="paint6_linear_1218_1448" x1="56.4026" y1="47.8096" x2="56.4026" y2="63.5332" gradientUnits="userSpaceOnUse">
<stop stop-color="#FE5F26"/>
<stop offset="1" stop-color="#D30B01"/>
</linearGradient>
<linearGradient id="paint7_linear_1218_1448" x1="72.1956" y1="47.8096" x2="72.1956" y2="63.5345" gradientUnits="userSpaceOnUse">
<stop stop-color="#FE5F26"/>
<stop offset="1" stop-color="#D30B01"/>
</linearGradient>
</defs>
</svg>
