<svg xmlns="http://www.w3.org/2000/svg" xmlns:xlink="http://www.w3.org/1999/xlink" width="208" height="51" viewBox="0 0 208 51">
  <defs>
    <clipPath id="clip-path">
      <rect id="矩形_1127" data-name="矩形 1127" width="208" height="51" transform="translate(0.342)" fill="#fff"/>
    </clipPath>
    <linearGradient id="linear-gradient" x1="0.5" x2="0.5" y2="1" gradientUnits="objectBoundingBox">
      <stop offset="0" stop-color="#ff6227"/>
      <stop offset="1" stop-color="#d20900"/>
    </linearGradient>
  </defs>
  <g id="Siraya_OR_horizontal" transform="translate(-0.342)" clip-path="url(#clip-path)">
    <g id="Group_81" data-name="Group 81" transform="translate(0.126)">
      <g id="Group_78" data-name="Group 78" transform="translate(57.305 2.011)">
        <path id="Path_253" data-name="Path 253" d="M595.166,2058.943h-6.548v-1.477a7.073,7.073,0,0,0-1.048-3.895,3.932,3.932,0,0,0-3.574-1.626,4.12,4.12,0,0,0-2.183.514,4.305,4.305,0,0,0-1.348,1.284,5.488,5.488,0,0,0-.706,1.9,12.419,12.419,0,0,0-.193,2.2,21.328,21.328,0,0,0,.107,2.247,4.257,4.257,0,0,0,.471,1.6,3.534,3.534,0,0,0,1.113,1.22,9.852,9.852,0,0,0,2.033,1.027l5.007,1.99a12.43,12.43,0,0,1,3.531,1.969,8.5,8.5,0,0,1,2.118,2.611,12.271,12.271,0,0,1,.963,3.488,34.443,34.443,0,0,1,.257,4.451,23.626,23.626,0,0,1-.578,5.371,11.237,11.237,0,0,1-1.862,4.194,9.237,9.237,0,0,1-3.531,2.825,12.45,12.45,0,0,1-5.328,1.027,11.661,11.661,0,0,1-4.43-.834,10.534,10.534,0,0,1-3.531-2.311,11.614,11.614,0,0,1-2.354-3.424,10.476,10.476,0,0,1-.856-4.28v-2.439h6.548v2.054a5.388,5.388,0,0,0,1.07,3.252,4.126,4.126,0,0,0,3.574,1.455,6.011,6.011,0,0,0,2.589-.471,3.5,3.5,0,0,0,1.455-1.391,5.453,5.453,0,0,0,.621-2.14c.064-.834.086-1.754.086-2.782a27.667,27.667,0,0,0-.128-2.953,5.083,5.083,0,0,0-.514-1.862,3.787,3.787,0,0,0-1.177-1.156,16.526,16.526,0,0,0-1.947-.963l-4.686-1.926c-2.825-1.156-4.708-2.675-5.671-4.6a15.768,15.768,0,0,1-1.455-7.168,16.6,16.6,0,0,1,.706-4.879,11.1,11.1,0,0,1,2.118-3.98,9.947,9.947,0,0,1,3.424-2.675,11.412,11.412,0,0,1,4.964-1.006,10.812,10.812,0,0,1,4.451.9,11.808,11.808,0,0,1,3.509,2.375,9.919,9.919,0,0,1,2.953,7.062v3.21Z" transform="translate(-572.696 -2045.397)" fill="#fff"/>
        <path id="Path_254" data-name="Path 254" d="M716.4,2092.908V2047.2h6.548v45.708Z" transform="translate(-685.649 -2046.814)" fill="#fff"/>
        <path id="Path_255" data-name="Path 255" d="M791.7,2092.908V2047.2h10.528q11.555,0,11.555,13.417a17.283,17.283,0,0,1-1.241,6.869,9.784,9.784,0,0,1-4.387,4.558l7.062,20.864h-6.933l-6.1-19.516h-3.916v19.516Zm6.548-39.545v14.251h3.723a6.96,6.96,0,0,0,2.76-.471,3.637,3.637,0,0,0,1.6-1.391,6.216,6.216,0,0,0,.706-2.2,24.07,24.07,0,0,0,0-6.077,6.156,6.156,0,0,0-.77-2.29q-1.22-1.8-4.622-1.8h-3.4Z" transform="translate(-744.836 -2046.814)" fill="#fff"/>
        <path id="Path_256" data-name="Path 256" d="M920.7,2092.908l10.207-45.708h5.457l10.207,45.708h-6.548l-1.926-9.822h-8.923l-1.926,9.822Zm16.177-15.985-3.21-16.562h-.128l-3.21,16.563Z" transform="translate(-846.232 -2046.814)" fill="#fff"/>
        <path id="Path_257" data-name="Path 257" d="M1050.587,2092.908v-19.323L1041.6,2047.2h6.933l5.264,18.167h.128l5.264-18.167h6.933l-8.987,26.385v19.323h-6.548Z" transform="translate(-941.26 -2046.814)" fill="#fff"/>
        <path id="Path_258" data-name="Path 258" d="M1156.2,2092.908l10.207-45.708h5.457l10.207,45.708h-6.548l-1.926-9.822h-8.923l-1.926,9.822Zm16.177-15.985-3.21-16.562h-.128l-3.21,16.563Z" transform="translate(-1031.338 -2046.814)" fill="#fff"/>
      </g>
      <g id="Group_80" data-name="Group 80">
        <path id="Rectangle-Copy-17_00000160871128412015117370000014747511337371699080_" d="M355.4,2061.25A25.251,25.251,0,1,1,330.151,2036,25.25,25.25,0,0,1,355.4,2061.25Z" transform="translate(-304.9 -2036)" fill-rule="evenodd" fill="url(#linear-gradient)"/>
        <g id="Group_79" data-name="Group 79" transform="translate(9.394 6.184)">
          <path id="Rectangle-Copy-19_00000002369115772872676620000003390884154783396767_" d="M437.577,2088.715l-1.926,1.926a6.283,6.283,0,0,1-8.88.021l-5.371-5.307h0l6.355-6.355Z" transform="translate(-405.865 -2075.983)" fill="rgba(255,234,230,0.65)" fill-rule="evenodd"/>
          <path id="Rectangle-Copy-21_00000146495341660020239910000000042716592384532382_" d="M348.8,2169.837l1.926-1.926a6.283,6.283,0,0,1,8.88-.021l5.371,5.307h0l-6.355,6.355Z" transform="translate(-348.8 -2144.415)" fill="#fff" fill-rule="evenodd"/>
          <path id="Path_259" data-name="Path 259" d="M399.676,2123.415,389.661,2113.4l-7.361,7.361,10.015,9.993,7.361-7.34" transform="translate(-375.131 -2103.021)" fill="rgba(255,234,230,0.65)" fill-rule="evenodd"/>
          <path id="Path_260" data-name="Path 260" d="M394.8,2201.94a10.429,10.429,0,0,0,14.722.021l-7.361-7.361Z" transform="translate(-384.957 -2166.846)" fill="rgba(255,234,230,0.65)" fill-rule="evenodd"/>
          <path id="Path_261" data-name="Path 261" d="M436.461,2160.2l-7.361,7.361,7.361,7.361a10.391,10.391,0,0,0,0-14.722Z" transform="translate(-411.917 -2139.807)" fill="rgba(255,241,238,0.8)" fill-rule="evenodd"/>
          <path id="Path_262" data-name="Path 262" d="M439.9,2070.8a.469.469,0,0,0,.107.064C439.964,2070.822,439.921,2070.822,439.9,2070.8Z" transform="translate(-420.406 -2069.537)" fill="rgba(255,255,255,0.8)" fill-rule="evenodd"/>
          <path id="Path_263" data-name="Path 263" d="M432.3,2067.4c.043.021.086.021.107.043A.163.163,0,0,1,432.3,2067.4Z" transform="translate(-414.432 -2066.865)" fill="rgba(255,255,255,0.8)" fill-rule="evenodd"/>
          <path id="Path_264" data-name="Path 264" d="M430,2066.7a.231.231,0,0,0,.107.021C430.086,2066.743,430.043,2066.721,430,2066.7Z" transform="translate(-412.624 -2066.314)" fill="rgba(255,255,255,0.8)" fill-rule="evenodd"/>
          <path id="Path_265" data-name="Path 265" d="M434.5,2068.2c.043.021.086.021.107.043A.163.163,0,0,1,434.5,2068.2Z" transform="translate(-416.161 -2067.494)" fill="rgba(255,255,255,0.8)" fill-rule="evenodd"/>
          <path id="Path_266" data-name="Path 266" d="M431.1,2067.1c.043.021.086.021.107.043A.164.164,0,0,0,431.1,2067.1Z" transform="translate(-413.489 -2066.629)" fill="rgba(255,255,255,0.8)" fill-rule="evenodd"/>
          <path id="Path_267" data-name="Path 267" d="M438.8,2070.2c.043.021.064.043.107.064C438.864,2070.243,438.843,2070.221,438.8,2070.2Z" transform="translate(-419.541 -2069.066)" fill="rgba(255,255,255,0.8)" fill-rule="evenodd"/>
          <path id="Path_268" data-name="Path 268" d="M435.6,2068.7c.043.021.086.021.107.043C435.664,2068.721,435.621,2068.721,435.6,2068.7Z" transform="translate(-417.026 -2067.887)" fill="rgba(255,255,255,0.8)" fill-rule="evenodd"/>
          <path id="Path_269" data-name="Path 269" d="M428.9,2066.4a.231.231,0,0,0,.107.021A.16.16,0,0,1,428.9,2066.4Z" transform="translate(-411.76 -2066.079)" fill="rgba(255,255,255,0.8)" fill-rule="evenodd"/>
          <path id="Path_270" data-name="Path 270" d="M437.7,2069.7c.043.021.064.021.107.043a.164.164,0,0,0-.107-.042Z" transform="translate(-418.677 -2068.673)" fill="rgba(255,255,255,0.8)" fill-rule="evenodd"/>
          <path id="Path_271" data-name="Path 271" d="M436.6,2069.2c.043.021.086.021.107.043A.164.164,0,0,0,436.6,2069.2Z" transform="translate(-417.812 -2068.28)" fill="rgba(255,255,255,0.8)" fill-rule="evenodd"/>
          <path id="Path_272" data-name="Path 272" d="M433.4,2067.8c.043.021.086.021.107.043C433.464,2067.822,433.421,2067.822,433.4,2067.8Z" transform="translate(-415.297 -2067.179)" fill="rgba(255,255,255,0.8)" fill-rule="evenodd"/>
          <path id="Path_273" data-name="Path 273" d="M427.7,2066.1a1,1,0,0,1,.107.021A.234.234,0,0,1,427.7,2066.1Z" transform="translate(-410.816 -2065.843)" fill="rgba(255,255,255,0.8)" fill-rule="evenodd"/>
          <path id="Path_274" data-name="Path 274" d="M420.8,2065.1a.269.269,0,0,1,.128.021.266.266,0,0,0-.128-.021Z" transform="translate(-405.393 -2065.054)" fill="rgba(255,255,255,0.8)" fill-rule="evenodd"/>
          <path id="Path_275" data-name="Path 275" d="M421.9,2065.2a.269.269,0,0,1,.128.021A.269.269,0,0,0,421.9,2065.2Z" transform="translate(-406.257 -2065.133)" fill="rgba(255,255,255,0.8)" fill-rule="evenodd"/>
          <path id="Path_276" data-name="Path 276" d="M418.5,2064.9Z" transform="translate(-403.585 -2064.9)" fill="rgba(255,255,255,0.8)" fill-rule="evenodd"/>
          <path id="Path_277" data-name="Path 277" d="M419.6,2065Z" transform="translate(-404.45 -2064.979)" fill="rgba(255,255,255,0.8)" fill-rule="evenodd"/>
          <path id="Path_278" data-name="Path 278" d="M426.6,2065.9c.043,0,.086.021.128.021C426.686,2065.921,426.643,2065.9,426.6,2065.9Z" transform="translate(-409.952 -2065.686)" fill="rgba(255,255,255,0.8)" fill-rule="evenodd"/>
          <path id="Path_279" data-name="Path 279" d="M425.4,2065.7c.043,0,.086.021.128.021A.272.272,0,0,0,425.4,2065.7Z" transform="translate(-409.009 -2065.526)" fill="rgba(255,255,255,0.8)" fill-rule="evenodd"/>
          <path id="Path_280" data-name="Path 280" d="M424.3,2065.5c.043,0,.086.021.128.021C424.386,2065.521,424.343,2065.5,424.3,2065.5Z" transform="translate(-408.144 -2065.371)" fill="rgba(255,255,255,0.8)" fill-rule="evenodd"/>
          <path id="Path_281" data-name="Path 281" d="M423.1,2065.3c.043,0,.086.021.128.021A.272.272,0,0,1,423.1,2065.3Z" transform="translate(-407.201 -2065.214)" fill="rgba(255,255,255,0.8)" fill-rule="evenodd"/>
          <path id="Path_282" data-name="Path 282" d="M417.3,2064.9Z" transform="translate(-402.642 -2064.9)" fill="rgba(255,255,255,0.8)" fill-rule="evenodd"/>
          <path id="Path_283" data-name="Path 283" d="M446.9,2075.5c.021.021.064.043.086.085a.167.167,0,0,0-.086-.085Z" transform="translate(-425.908 -2073.231)" fill="rgba(255,255,255,0.8)" fill-rule="evenodd"/>
          <path id="Path_284" data-name="Path 284" d="M446,2074.7c.021.021.064.043.086.064A.3.3,0,0,1,446,2074.7Z" transform="translate(-425.2 -2072.603)" fill="rgba(255,255,255,0.8)" fill-rule="evenodd"/>
          <path id="Path_285" data-name="Path 285" d="M445,2074c.021.021.064.043.086.064A.3.3,0,0,0,445,2074Z" transform="translate(-424.414 -2072.052)" fill="rgba(255,255,255,0.8)" fill-rule="evenodd"/>
          <path id="Path_286" data-name="Path 286" d="M443,2072.6c.021.021.064.043.086.064C443.064,2072.643,443.021,2072.622,443,2072.6Z" transform="translate(-422.842 -2070.952)" fill="rgba(255,255,255,0.8)" fill-rule="evenodd"/>
          <path id="Path_287" data-name="Path 287" d="M378.5,2086.44l-7.361,7.361a10.384,10.384,0,0,1,.021-14.7Z" transform="translate(-363.97 -2076.061)" fill="rgba(255,241,238,0.8)" fill-rule="evenodd"/>
          <path id="Path_288" data-name="Path 288" d="M389.74,2086.44l-7.34-7.34" transform="translate(-375.21 -2076.061)" fill="rgba(255,255,255,0.8)" fill-rule="evenodd"/>
          <path id="Path_289" data-name="Path 289" d="M447.9,2076.3c.021.021.064.043.086.064a.293.293,0,0,0-.086-.064Z" transform="translate(-426.694 -2073.86)" fill="rgba(255,255,255,0.8)" fill-rule="evenodd"/>
          <path id="Path_290" data-name="Path 290" d="M448.9,2077.1a.293.293,0,0,0,.086.064.3.3,0,0,1-.086-.064Z" transform="translate(-427.48 -2074.489)" fill="rgba(255,255,255,0.8)" fill-rule="evenodd"/>
          <path id="Path_291" data-name="Path 291" d="M444,2073.3c.021.021.064.043.086.064a.292.292,0,0,0-.086-.064Z" transform="translate(-423.628 -2071.502)" fill="rgba(255,255,255,0.8)" fill-rule="evenodd"/>
          <path id="Path_292" data-name="Path 292" d="M440.9,2071.4a.468.468,0,0,0,.107.064C440.964,2071.421,440.943,2071.4,440.9,2071.4Z" transform="translate(-421.192 -2070.009)" fill="rgba(255,255,255,0.8)" fill-rule="evenodd"/>
          <path id="Path_293" data-name="Path 293" d="M441.9,2072a.461.461,0,0,0,.107.064.469.469,0,0,0-.107-.064Z" transform="translate(-421.978 -2070.48)" fill="rgba(255,255,255,0.8)" fill-rule="evenodd"/>
          <path id="Path_294" data-name="Path 294" d="M438.2,2069.9l.128.064Z" transform="translate(-419.07 -2068.83)" fill="#fff"/>
          <path id="Path_295" data-name="Path 295" d="M442.4,2072.2a.453.453,0,0,1,.128.086A.447.447,0,0,1,442.4,2072.2Z" transform="translate(-422.371 -2070.638)" fill="#fff"/>
          <path id="Path_296" data-name="Path 296" d="M423.7,2065.4c.043,0,.086.021.128.021C423.786,2065.421,423.743,2065.4,423.7,2065.4Z" transform="translate(-407.672 -2065.293)" fill="#fff"/>
          <path id="Path_297" data-name="Path 297" d="M426,2065.8c.043,0,.086.021.128.021C426.086,2065.822,426.043,2065.8,426,2065.8Z" transform="translate(-409.48 -2065.607)" fill="#fff"/>
          <path id="Path_298" data-name="Path 298" d="M441.4,2071.6l.128.064Z" transform="translate(-421.585 -2070.166)" fill="#fff"/>
          <path id="Path_299" data-name="Path 299" d="M424.8,2065.6c.043,0,.086.021.128.021A.27.27,0,0,0,424.8,2065.6Z" transform="translate(-408.537 -2065.447)" fill="#fff"/>
          <path id="Path_300" data-name="Path 300" d="M447.4,2075.8a.567.567,0,0,1,.128.107C447.464,2075.864,447.421,2075.843,447.4,2075.8Z" transform="translate(-426.301 -2073.467)" fill="#fff"/>
          <path id="Path_301" data-name="Path 301" d="M416.7,2064.9Z" transform="translate(-402.17 -2064.9)" fill="#fff"/>
          <path id="Path_302" data-name="Path 302" d="M419,2064.9h.128A.136.136,0,0,1,419,2064.9Z" transform="translate(-403.978 -2064.9)" fill="#fff"/>
          <path id="Path_303" data-name="Path 303" d="M433.9,2081.444l3.681-3.68c-.128-.128-.257-.257-.385-.364.128.128.257.236.385.364Z" transform="translate(-415.69 -2074.725)" fill="#fff"/>
          <path id="Path_304" data-name="Path 304" d="M417.9,2064.9Z" transform="translate(-403.113 -2064.9)" fill="#fff"/>
          <path id="Path_305" data-name="Path 305" d="M439.3,2070.4l.128.064A.184.184,0,0,1,439.3,2070.4Z" transform="translate(-419.934 -2069.223)" fill="#fff"/>
          <path id="Path_306" data-name="Path 306" d="M420.2,2065a.27.27,0,0,1,.128.021C420.286,2065.019,420.243,2065,420.2,2065Z" transform="translate(-404.921 -2064.976)" fill="#fff"/>
          <path id="Path_307" data-name="Path 307" d="M421.4,2065.1a.269.269,0,0,1,.128.021.266.266,0,0,0-.128-.021Z" transform="translate(-405.865 -2065.054)" fill="#fff"/>
          <path id="Path_308" data-name="Path 308" d="M448.3,2076.6c.043.043.086.064.128.107C448.386,2076.664,448.343,2076.643,448.3,2076.6Z" transform="translate(-427.008 -2074.096)" fill="#fff"/>
          <path id="Path_309" data-name="Path 309" d="M422.5,2065.2c.043,0,.086.021.128.021A.269.269,0,0,1,422.5,2065.2Z" transform="translate(-406.729 -2065.135)" fill="#fff"/>
          <path id="Path_310" data-name="Path 310" d="M431.7,2067.2c.043.021.086.021.128.043A.231.231,0,0,1,431.7,2067.2Z" transform="translate(-413.96 -2066.707)" fill="#fff"/>
          <path id="Path_311" data-name="Path 311" d="M440.4,2071l.128.064a.344.344,0,0,1-.128-.064Z" transform="translate(-420.799 -2069.695)" fill="#fff"/>
          <path id="Path_312" data-name="Path 312" d="M443.4,2072.9c.043.021.086.064.128.085C443.486,2072.964,443.443,2072.921,443.4,2072.9Z" transform="translate(-423.157 -2071.188)" fill="#fff"/>
          <path id="Path_313" data-name="Path 313" d="M432.8,2067.6c.043.021.086.021.128.043A.3.3,0,0,1,432.8,2067.6Z" transform="translate(-414.825 -2067.022)" fill="#fff"/>
          <path id="Path_314" data-name="Path 314" d="M436.1,2068.9l.128.064Z" transform="translate(-417.419 -2068.044)" fill="#fff"/>
          <path id="Path_315" data-name="Path 315" d="M433.9,2068c.043.021.086.021.128.043a.307.307,0,0,1-.128-.043Z" transform="translate(-415.69 -2067.336)" fill="#fff"/>
          <path id="Path_316" data-name="Path 316" d="M446.4,2075a.469.469,0,0,1,.107.086A.379.379,0,0,1,446.4,2075Z" transform="translate(-425.515 -2072.838)" fill="#fff"/>
          <path id="Path_317" data-name="Path 317" d="M427.1,2066c.043,0,.086.021.128.021A.269.269,0,0,1,427.1,2066Z" transform="translate(-410.345 -2065.764)" fill="#fff"/>
          <path id="Path_318" data-name="Path 318" d="M428.3,2066.3a.275.275,0,0,0,.128.021C428.386,2066.322,428.343,2066.3,428.3,2066.3Z" transform="translate(-411.288 -2066)" fill="#fff"/>
          <path id="Path_319" data-name="Path 319" d="M437.2,2069.4l.128.064A.7.7,0,0,1,437.2,2069.4Z" transform="translate(-418.284 -2068.437)" fill="#fff"/>
          <path id="Path_320" data-name="Path 320" d="M444.4,2073.6c.043.021.086.064.128.085C444.486,2073.664,444.443,2073.621,444.4,2073.6Z" transform="translate(-423.943 -2071.738)" fill="#fff"/>
          <path id="Path_321" data-name="Path 321" d="M435,2068.4c.043.021.086.021.128.043a.307.307,0,0,1-.128-.043Z" transform="translate(-416.554 -2067.651)" fill="#fff"/>
          <path id="Path_322" data-name="Path 322" d="M430.5,2066.9c.043.021.086.021.128.043A.3.3,0,0,0,430.5,2066.9Z" transform="translate(-413.017 -2066.472)" fill="#fff"/>
          <path id="Path_323" data-name="Path 323" d="M429.4,2066.6c.043.021.086.021.128.042a.311.311,0,0,0-.128-.043Z" transform="translate(-412.153 -2066.236)" fill="#fff"/>
          <path id="Path_324" data-name="Path 324" d="M445.4,2074.3a.468.468,0,0,1,.107.086A.468.468,0,0,0,445.4,2074.3Z" transform="translate(-424.729 -2072.288)" fill="#fff"/>
          <path id="Path_325" data-name="Path 325" d="M389.347,2075.278l7.34-7.34c-.128-.128-.257-.257-.385-.364a.3.3,0,0,0-.086-.064.566.566,0,0,0-.128-.107c-.021-.021-.064-.043-.086-.064a.566.566,0,0,1-.128-.107c-.021-.021-.064-.043-.086-.086a.456.456,0,0,1-.107-.086c-.021-.021-.064-.043-.086-.064a.462.462,0,0,1-.107-.085c-.021-.021-.064-.043-.086-.064-.043-.021-.086-.064-.128-.086-.021-.021-.064-.043-.086-.064-.043-.021-.086-.064-.128-.086-.021-.021-.064-.043-.086-.064a.453.453,0,0,1-.128-.085.461.461,0,0,0-.107-.064l-.128-.064a.462.462,0,0,0-.107-.064l-.128-.064a.461.461,0,0,0-.107-.064l-.128-.064c-.043-.021-.064-.043-.107-.064l-.128-.064c-.043-.021-.064-.021-.107-.043l-.128-.064c-.043-.021-.086-.021-.107-.043l-.128-.064c-.043-.021-.086-.021-.107-.043a.3.3,0,0,0-.128-.043c-.043-.021-.086-.021-.107-.042-.043-.021-.086-.021-.128-.043s-.086-.021-.107-.043c-.043-.021-.086-.021-.128-.042s-.086-.021-.107-.043c-.043-.022-.086-.022-.128-.043s-.086-.021-.107-.043c-.043-.021-.086-.021-.128-.043a.231.231,0,0,0-.107-.021c-.043-.021-.086-.021-.128-.043a.231.231,0,0,0-.107-.021.269.269,0,0,0-.128-.021.888.888,0,0,1-.107-.021.269.269,0,0,0-.128-.021c-.043,0-.086-.021-.128-.021s-.086-.021-.128-.021-.086-.021-.128-.021-.086-.021-.128-.021-.086-.021-.128-.021-.086-.021-.128-.021-.086-.021-.128-.021-.086-.021-.128-.021a.276.276,0,0,1-.128-.021c-.043-.021-.086,0-.128-.021l-.257-.043h-.77a10.427,10.427,0,0,0-7.34,3.039Z" transform="translate(-374.817 -2064.899)" fill="#fff"/>
          <path id="Path_326" data-name="Path 326" d="M382.3,2147.8l10.015,9.993,7.361-7.361C399.676,2150.453,391.78,2153.663,382.3,2147.8Z" transform="translate(-375.131 -2130.06)" fill="#fff"/>
        </g>
      </g>
    </g>
  </g>
</svg>
